<svg width="248" height="121" viewBox="0 0 248 121" fill="none" xmlns="http://www.w3.org/2000/svg">
<path fill-rule="evenodd" clip-rule="evenodd" d="M91.6 31.64C91.6 30.5354 90.7046 29.64 89.6 29.64H85.12C84.0154 29.64 83.12 30.5354 83.12 31.64V79C83.12 80.1046 84.0154 81 85.12 81H89.6C90.7046 81 91.6 80.1046 91.6 79V31.64ZM189.968 54.7548C190.992 52.9275 192.3 51.6457 193.88 50.8212L193.91 50.8053C195.57 49.903 197.374 49.448 199.355 49.448C201.336 49.448 203.14 49.903 204.8 50.8053L204.83 50.8212C206.412 51.6467 207.721 52.9305 208.746 54.7612L208.755 54.7763C209.735 56.4924 210.283 58.7099 210.283 61.528C210.283 64.3333 209.719 66.5705 208.697 68.3326L208.691 68.3437C207.668 70.1324 206.355 71.4314 204.751 72.3066C203.09 73.1703 201.28 73.608 199.291 73.608C197.305 73.608 195.498 73.1718 193.84 72.311C192.285 71.4421 190.992 70.1502 189.968 68.3648C189.017 66.5944 188.491 64.3438 188.491 61.528C188.491 58.7022 189.021 56.4762 189.968 54.7548ZM182.511 51.0691C184.221 48.0327 186.572 45.6724 189.55 44.0363C192.517 42.364 195.822 41.544 199.419 41.544C203.013 41.544 206.316 42.363 209.282 44.0331C212.303 45.6677 214.662 48.031 216.333 51.0805C218.063 54.1151 218.891 57.6206 218.891 61.528C218.891 65.4054 218.058 68.9097 216.33 71.9805C214.616 75.0272 212.24 77.4078 209.222 79.0843L209.201 79.0961C206.199 80.716 202.882 81.512 199.291 81.512C195.7 81.512 192.399 80.7161 189.433 79.0896C189.422 79.0834 189.411 79.0771 189.4 79.0707C186.478 77.3945 184.157 75.043 182.451 72.0563C182.444 72.0455 182.438 72.0346 182.432 72.0236C180.753 68.9534 179.947 65.4343 179.947 61.528C179.947 57.6157 180.777 54.1063 182.511 51.0691ZM150.638 72.2108C149.024 71.2601 147.725 69.9043 146.739 68.0866C145.802 66.2406 145.303 64.0508 145.303 61.464C145.303 58.8198 145.808 56.6624 146.731 54.9197C147.718 53.0951 149.016 51.762 150.624 50.8531C152.257 49.9297 154.131 49.448 156.295 49.448C158.347 49.448 160.171 49.9382 161.811 50.9008L161.827 50.9102C163.494 51.8678 164.815 53.2316 165.8 55.0543C166.77 56.8517 167.287 58.9899 167.287 61.528C167.287 64.0661 166.77 66.2043 165.8 68.0017C164.815 69.8244 163.494 71.1882 161.827 72.1458L161.811 72.1552C160.171 73.1179 158.347 73.608 156.295 73.608C154.137 73.608 152.268 73.129 150.638 72.2108ZM165.107 44.157C165.892 44.6527 166.62 45.1905 167.287 45.7706V44.056C167.287 42.9514 168.183 42.056 169.287 42.056H173.767C174.872 42.056 175.767 42.9514 175.767 44.056V79.896C175.767 83.3944 174.996 86.5766 173.4 89.3859C171.852 92.1868 169.659 94.3576 166.85 95.8616C164.049 97.4042 160.898 98.152 157.447 98.152C152.644 98.152 148.48 97.0043 145.085 94.5795L145.074 94.5715C141.708 92.1326 139.602 88.7848 138.781 84.6359C138.665 84.0488 138.818 83.4406 139.198 82.9783C139.578 82.516 140.145 82.248 140.743 82.248H145.159C146.032 82.248 146.804 82.8137 147.067 83.6457C147.697 85.6411 148.866 87.2125 150.629 88.4131C152.416 89.6024 154.655 90.248 157.447 90.248C159.41 90.248 161.1 89.8252 162.567 89.0218L162.59 89.0095L162.599 89.0043C164.021 88.2599 165.15 87.1453 165.996 85.5943C166.831 84.0635 167.287 82.1871 167.287 79.896V77.1966C166.607 77.803 165.865 78.366 165.064 78.8856L165.057 78.8904C162.297 80.6646 159.071 81.512 155.463 81.512C151.939 81.512 148.706 80.6855 145.816 78.9996L145.803 78.9921C142.952 77.3008 140.718 74.91 139.105 71.8743L139.094 71.8526C137.517 68.7948 136.759 65.3138 136.759 61.464C136.759 57.6152 137.517 54.15 139.1 51.128L139.105 51.1177C140.719 48.0794 142.958 45.7043 145.82 44.054C148.709 42.3697 151.94 41.544 155.463 41.544C159.072 41.544 162.312 42.3916 165.107 44.157ZM105.717 54.7552C106.742 52.9276 108.05 51.6458 109.63 50.8212L109.66 50.8053C111.32 49.903 113.124 49.448 115.105 49.448C117.086 49.448 118.89 49.903 120.55 50.8053L120.58 50.8212C122.162 51.6467 123.471 52.9305 124.496 54.7612L124.505 54.7763C125.485 56.4924 126.033 58.7099 126.033 61.528C126.033 64.3333 125.469 66.5705 124.447 68.3326L124.447 68.3326L124.441 68.3437C123.418 70.1324 122.105 71.4314 120.501 72.3066C118.84 73.1703 117.03 73.608 115.041 73.608C113.055 73.608 111.248 73.1718 109.59 72.311C108.035 71.4421 106.742 70.1502 105.718 68.3648C104.767 66.5944 104.241 64.3438 104.241 61.528C104.241 58.7024 104.771 56.4765 105.717 54.7552ZM98.261 51.0698C99.9705 48.0331 102.322 45.6725 105.301 44.0363C108.267 42.364 111.572 41.544 115.169 41.544C118.763 41.544 122.066 42.3629 125.032 44.033C128.053 45.6676 130.411 48.0308 132.083 51.0801C133.813 54.1148 134.641 57.6204 134.641 61.528C134.641 65.4054 133.808 68.9097 132.08 71.9805C130.366 75.0272 127.99 77.4078 124.972 79.0843L124.951 79.0961C121.949 80.716 118.632 81.512 115.041 81.512C111.45 81.512 108.149 80.7161 105.183 79.0896C105.176 79.0856 105.169 79.0815 105.161 79.0773C105.157 79.0751 105.154 79.073 105.15 79.0707C102.228 77.3945 99.9072 75.043 98.2005 72.0563C98.1943 72.0455 98.1882 72.0346 98.1823 72.0236C96.5032 68.9534 95.697 65.4343 95.697 61.528C95.697 57.616 96.5272 54.1069 98.261 51.0698Z" fill="#1A1A1A"/>
<path fill-rule="evenodd" clip-rule="evenodd" d="M61.4853 35.9329L52.297 42.4861L37.3166 31.4C39.8757 30.4934 42.6302 30 45.5 30C51.6084 30 57.1946 32.2354 61.4853 35.9329ZM68.3236 45.5749C69.4059 48.3405 70 51.3509 70 54.5C70 54.8585 69.9923 55.2153 69.9771 55.57L65.9708 52.6053L68.3236 45.5749ZM65.4108 68.7793L60.7556 68.7385L59.3901 74.6848C61.7211 73.0777 63.7599 71.0773 65.4108 68.7793ZM45.6458 78.9996L43.3892 68.586L25.3411 68.4276C29.7629 74.8156 37.1428 79 45.5 79C45.5486 79 45.5972 78.9999 45.6458 78.9996ZM22.7341 63.5709L38.4477 52.3637L32.5613 33.6913C25.6197 38.0166 21 45.7188 21 54.5C21 57.7046 21.6152 60.7654 22.7341 63.5709Z" fill="#CCCCCC"/>
</svg>
